<svg xmlns="http://www.w3.org/2000/svg" xmlns:svg="http://www.w3.org/2000/svg" id="svg6416" width="751.463" height="31.247" version="1.1" viewBox="0 0 704.496 29.294"><defs id="defs6418"><filter style="color-interpolation-filters:sRGB" id="filter4419"><feGaussianBlur id="feGaussianBlur4421" in="SourceAlpha" result="result0" stdDeviation="4"/><feOffset id="feOffset4423" dx="5" dy="5" result="result4"/><feComposite id="feComposite4425" in="SourceGraphic" in2="result4" operator="xor" result="result3"/></filter><filter style="color-interpolation-filters:sRGB" id="filter4956"><feFlood id="feFlood4958" flood-color="#000" flood-opacity=".498" result="flood"/><feComposite id="feComposite4960" in="flood" in2="SourceGraphic" operator="in" result="composite1"/><feGaussianBlur id="feGaussianBlur4962" in="composite1" result="blur" stdDeviation=".5"/><feOffset id="feOffset4964" dx="0" dy="0" result="offset"/><feComposite id="feComposite4966" in="SourceGraphic" in2="offset" operator="over" result="composite2"/></filter><filter style="color-interpolation-filters:sRGB" id="filter4968"><feFlood id="feFlood4970" flood-color="#000" flood-opacity=".498" result="flood"/><feComposite id="feComposite4972" in="flood" in2="SourceGraphic" operator="in" result="composite1"/><feGaussianBlur id="feGaussianBlur4974" in="composite1" result="blur" stdDeviation=".5"/><feOffset id="feOffset4976" dx="0" dy="0" result="offset"/><feComposite id="feComposite4978" in="SourceGraphic" in2="offset" operator="over" result="composite2"/></filter><filter style="color-interpolation-filters:sRGB" id="filter4980"><feFlood id="feFlood4982" flood-color="#000" flood-opacity=".498" result="flood"/><feComposite id="feComposite4984" in="flood" in2="SourceGraphic" operator="in" result="composite1"/><feGaussianBlur id="feGaussianBlur4986" in="composite1" result="blur" stdDeviation=".5"/><feOffset id="feOffset4988" dx="0" dy="0" result="offset"/><feComposite id="feComposite4990" in="SourceGraphic" in2="offset" operator="over" result="composite2"/></filter><filter style="color-interpolation-filters:sRGB" id="filter4992"><feFlood id="feFlood4994" flood-color="#000" flood-opacity=".498" result="flood"/><feComposite id="feComposite4996" in="flood" in2="SourceGraphic" operator="in" result="composite1"/><feGaussianBlur id="feGaussianBlur4998" in="composite1" result="blur" stdDeviation=".5"/><feOffset id="feOffset5000" dx="0" dy="0" result="offset"/><feComposite id="feComposite5002" in="SourceGraphic" in2="offset" operator="over" result="composite2"/></filter><filter style="color-interpolation-filters:sRGB" id="filter5004"><feFlood id="feFlood5006" flood-color="#000" flood-opacity=".498" result="flood"/><feComposite id="feComposite5008" in="flood" in2="SourceGraphic" operator="in" result="composite1"/><feGaussianBlur id="feGaussianBlur5010" in="composite1" result="blur" stdDeviation=".5"/><feOffset id="feOffset5012" dx="0" dy="0" result="offset"/><feComposite id="feComposite5014" in="SourceGraphic" in2="offset" operator="over" result="composite2"/></filter><filter style="color-interpolation-filters:sRGB" id="filter5016"><feFlood id="feFlood5018" flood-color="#000" flood-opacity=".498" result="flood"/><feComposite id="feComposite5020" in="flood" in2="SourceGraphic" operator="in" result="composite1"/><feGaussianBlur id="feGaussianBlur5022" in="composite1" result="blur" stdDeviation=".5"/><feOffset id="feOffset5024" dx="0" dy="0" result="offset"/><feComposite id="feComposite5026" in="SourceGraphic" in2="offset" operator="over" result="composite2"/></filter><filter style="color-interpolation-filters:sRGB" id="filter5028"><feFlood id="feFlood5030" flood-color="#000" flood-opacity=".498" result="flood"/><feComposite id="feComposite5032" in="flood" in2="SourceGraphic" operator="in" result="composite1"/><feGaussianBlur id="feGaussianBlur5034" in="composite1" result="blur" stdDeviation=".5"/><feOffset id="feOffset5036" dx="0" dy="0" result="offset"/><feComposite id="feComposite5038" in="SourceGraphic" in2="offset" operator="over" result="composite2"/></filter><filter style="color-interpolation-filters:sRGB" id="filter5040"><feFlood id="feFlood5042" flood-color="#000" flood-opacity=".498" result="flood"/><feComposite id="feComposite5044" in="flood" in2="SourceGraphic" operator="in" result="composite1"/><feGaussianBlur id="feGaussianBlur5046" in="composite1" result="blur" stdDeviation=".5"/><feOffset id="feOffset5048" dx="0" dy="0" result="offset"/><feComposite id="feComposite5050" in="SourceGraphic" in2="offset" operator="over" result="composite2"/></filter><filter style="color-interpolation-filters:sRGB" id="filter5052"><feFlood id="feFlood5054" flood-color="#000" flood-opacity=".498" result="flood"/><feComposite id="feComposite5056" in="flood" in2="SourceGraphic" operator="in" result="composite1"/><feGaussianBlur id="feGaussianBlur5058" in="composite1" result="blur" stdDeviation=".5"/><feOffset id="feOffset5060" dx="0" dy="0" result="offset"/><feComposite id="feComposite5062" in="SourceGraphic" in2="offset" operator="over" result="composite2"/></filter><filter style="color-interpolation-filters:sRGB" id="filter5064"><feFlood id="feFlood5066" flood-color="#000" flood-opacity=".498" result="flood"/><feComposite id="feComposite5068" in="flood" in2="SourceGraphic" operator="in" result="composite1"/><feGaussianBlur id="feGaussianBlur5070" in="composite1" result="blur" stdDeviation=".5"/><feOffset id="feOffset5072" dx="0" dy="0" result="offset"/><feComposite id="feComposite5074" in="SourceGraphic" in2="offset" operator="over" result="composite2"/></filter><filter style="color-interpolation-filters:sRGB" id="filter5076"><feFlood id="feFlood5078" flood-color="#000" flood-opacity=".498" result="flood"/><feComposite id="feComposite5080" in="flood" in2="SourceGraphic" operator="in" result="composite1"/><feGaussianBlur id="feGaussianBlur5082" in="composite1" result="blur" stdDeviation=".5"/><feOffset id="feOffset5084" dx="0" dy="0" result="offset"/><feComposite id="feComposite5086" in="SourceGraphic" in2="offset" operator="over" result="composite2"/></filter><filter style="color-interpolation-filters:sRGB" id="filter5088"><feFlood id="feFlood5090" flood-color="#000" flood-opacity=".498" result="flood"/><feComposite id="feComposite5092" in="flood" in2="SourceGraphic" operator="in" result="composite1"/><feGaussianBlur id="feGaussianBlur5094" in="composite1" result="blur" stdDeviation=".5"/><feOffset id="feOffset5096" dx="0" dy="0" result="offset"/><feComposite id="feComposite5098" in="SourceGraphic" in2="offset" operator="over" result="composite2"/></filter><filter style="color-interpolation-filters:sRGB" id="filter5100"><feFlood id="feFlood5102" flood-color="#000" flood-opacity=".498" result="flood"/><feComposite id="feComposite5104" in="flood" in2="SourceGraphic" operator="in" result="composite1"/><feGaussianBlur id="feGaussianBlur5106" in="composite1" result="blur" stdDeviation=".5"/><feOffset id="feOffset5108" dx="0" dy="0" result="offset"/><feComposite id="feComposite5110" in="SourceGraphic" in2="offset" operator="over" result="composite2"/></filter><filter style="color-interpolation-filters:sRGB" id="filter5112"><feFlood id="feFlood5114" flood-color="#000" flood-opacity=".498" result="flood"/><feComposite id="feComposite5116" in="flood" in2="SourceGraphic" operator="in" result="composite1"/><feGaussianBlur id="feGaussianBlur5118" in="composite1" result="blur" stdDeviation=".5"/><feOffset id="feOffset5120" dx="0" dy="0" result="offset"/><feComposite id="feComposite5122" in="SourceGraphic" in2="offset" operator="over" result="composite2"/></filter><filter style="color-interpolation-filters:sRGB" id="filter5124"><feFlood id="feFlood5126" flood-color="#000" flood-opacity=".498" result="flood"/><feComposite id="feComposite5128" in="flood" in2="SourceGraphic" operator="in" result="composite1"/><feGaussianBlur id="feGaussianBlur5130" in="composite1" result="blur" stdDeviation=".5"/><feOffset id="feOffset5132" dx="0" dy="0" result="offset"/><feComposite id="feComposite5134" in="SourceGraphic" in2="offset" operator="over" result="composite2"/></filter><filter style="color-interpolation-filters:sRGB" id="filter5136"><feFlood id="feFlood5138" flood-color="#000" flood-opacity=".498" result="flood"/><feComposite id="feComposite5140" in="flood" in2="SourceGraphic" operator="in" result="composite1"/><feGaussianBlur id="feGaussianBlur5142" in="composite1" result="blur" stdDeviation=".5"/><feOffset id="feOffset5144" dx="0" dy="0" result="offset"/><feComposite id="feComposite5146" in="SourceGraphic" in2="offset" operator="over" result="composite2"/></filter><filter style="color-interpolation-filters:sRGB" id="filter5148"><feFlood id="feFlood5150" flood-color="#000" flood-opacity=".498" result="flood"/><feComposite id="feComposite5152" in="flood" in2="SourceGraphic" operator="in" result="composite1"/><feGaussianBlur id="feGaussianBlur5154" in="composite1" result="blur" stdDeviation=".5"/><feOffset id="feOffset5156" dx="0" dy="0" result="offset"/><feComposite id="feComposite5158" in="SourceGraphic" in2="offset" operator="over" result="composite2"/></filter><filter style="color-interpolation-filters:sRGB" id="filter5160"><feFlood id="feFlood5162" flood-color="#000" flood-opacity=".498" result="flood"/><feComposite id="feComposite5164" in="flood" in2="SourceGraphic" operator="in" result="composite1"/><feGaussianBlur id="feGaussianBlur5166" in="composite1" result="blur" stdDeviation=".5"/><feOffset id="feOffset5168" dx="0" dy="0" result="offset"/><feComposite id="feComposite5170" in="SourceGraphic" in2="offset" operator="over" result="composite2"/></filter></defs><metadata id="metadata6421"/><g id="layer1" transform="translate(43.437851,-129.0716)" style="display:inline"><g id="code" style="filter:url(#filter4956)"><g id="g4095" transform="translate(-43.437851,131.44248)" style="display:inline"><path style="fill:#131111" id="path4078" d="M 25.7,0 0.8,0 C 0.4,0 0,0.4 0,0.8 L 0,21.2 C 0,21.6 0.4,22 0.8,22 l 24.9,0 c 0.4,0 0.8,-0.4 0.8,-0.8 l 0,-20.4 C 26.5,0.4 26.1,0 25.7,0 Z m -4.2,1.1 c 0.6,0 1.1,0.5 1.1,1.1 0,0.6 -0.5,1.1 -1.1,1.1 -0.6,0 -1.1,-0.5 -1.1,-1.1 0,-0.6 0.5,-1.1 1.1,-1.1 z m 4.1,19.4 c 0,0.3 -0.2,0.5 -0.5,0.5 L 1.4,21.1 c -0.3,0 -0.5,-0.2 -0.5,-0.5 l 0,-16.2 24.7,0 0,16.1 z M 24.5,3.3 c -0.6,0 -1.1,-0.5 -1.1,-1.1 0,-0.6 0.5,-1.1 1.1,-1.1 0.6,0 1.1,0.5 1.1,1.1 0,0.6 -0.5,1.1 -1.1,1.1 z" class="st0"/><path style="fill:#231f20" id="path4080" d="m 19.8,12.5 -0.1,-0.2 c -0.2,-0.6 -0.6,-1.5 -0.6,-2 0,-0.5 0.1,-1 0.3,-1.6 C 19.5,8.3 19.7,8 19.7,8 l 0.7,-1.4 -9.6,0 -0.3,0.6 C 10.3,7.6 9.9,8.6 9.8,9.7 l 1.3,-0.3 c 0.1,-0.7 0.3,-1.2 0.5,-1.6 l 6.9,0 0,0.1 0,0 c 0,0.1 -0.1,0.2 -0.1,0.4 -0.2,0.5 -0.4,1.2 -0.4,1.9 0,0.7 0.3,1.6 0.7,2.5 l 0.1,0.1 c 0.3,0.7 0.6,1.5 0.6,2.1 0,1 -0.4,2 -0.6,2.5 l -6.9,0 c 0.1,-0.1 0.1,-0.3 0.2,-0.5 0,-0.1 0.1,-0.3 0.1,-0.4 L 10.7,17 c -0.1,0.2 -0.2,0.4 -0.2,0.4 l -0.7,1.4 9.6,0 0.3,-0.5 c 0.2,-0.4 0.8,-1.7 0.8,-3.1 0,-0.9 -0.4,-1.8 -0.7,-2.7 z" class="st1"/><g id="g4082"><path style="fill:#231f20" id="path4084" d="m 13.4,15.2 2.6,-3 c 0.1,-0.2 0.1,-0.3 -0.1,-0.4 l -3.8,-1.3 c -0.1,0 -0.2,0 -0.2,0 l 0,0 c 0,0 0,0 0,0 l -4.4,1.2 0.3,1 3.9,-1 c 0.2,0 0.3,0.1 0.4,0.2 l 0.1,0.2 c 0,0.2 -0.1,0.3 -0.2,0.4 l -3.9,1 0.3,1 4,-1 c 0.1,0 0.3,0 0.3,0.2 l 0.1,0.3 c 0,0.1 0,0.3 -0.2,0.3 l -4,1 0.3,1.1 4.2,-1.1 c 0,0 0.2,0 0.3,-0.1 z m -0.2,-0.8 -0.8,-3.1 c 0,-0.2 0.2,-0.4 0.5,-0.3 l 2,0.7 c 0,0 0,0.1 0,0.1 l 0.2,0.9 c 0,0 0,0 0,0 l -1.4,1.6 c -0.1,0.3 -0.4,0.3 -0.5,0.1 z" class="st1"/><path style="fill:#231f20" id="path4086" d="M 8.5,16.6 8,16.7 C 7.1,16.9 6.1,16.4 5.8,15.4 L 5.4,14 C 5.2,13.1 5.7,12.1 6.7,11.8 l 0.5,-0.1 1.3,4.9 z" class="st1"/></g></g><rect id="rect10252" width="26.264" height="29.294" x="-43.438" y="129.072" style="fill:#fae7e7;fill-opacity:0"/></g><g id="tutorials" style="filter:url(#filter4968)"><g id="g4666" transform="translate(-3.437851,132.62931)" style="display:inline"><polygon style="fill:#010202" id="polygon4653" points="0 7.4 13.5 14.7 27 7.4 13.5 0" class="st0"/><polygon style="fill:#010202" id="polygon4655" points="13.5 16.2 4.9 11.4 4.9 16.8 13.5 21.5 22.1 16.8 22.1 11.4" class="st0"/><path style="fill:#010202" id="path4657" d="m 25.7,7.4 1.3,0 0,8.6 c 0,0.7 -0.5,1.2 -1.2,1.2 l 0,0 c -0.7,0 -1.2,-0.5 -1.2,-1.2 l 0,-7.4 C 24.5,7.9 25.1,7.4 25.7,7.4 Z" class="st0"/></g><rect style="fill:#fae7e7;fill-opacity:0" id="rect10254" width="27.274" height="29.294" x="-3.438" y="129.072"/></g><g id="select-grouped" style="filter:url(#filter4980)"><g id="g4609" transform="translate(76.562149,130.92316)" style="display:inline"><path style="fill:#010202" id="path4562" d="m 12.5,11.4 -5.2,11 -1.6,-4 -4.4,4 L 0,21 4.5,17.1 0.8,15.1 12.5,11.4" class="st0"/><polygon style="fill:#010202" id="polygon4564" points="17.9 15.1 17.9 5.3 8.1 5.3 8.1 11.1 15.6 8.7 12.5 15.1" class="st0"/><g id="g4566"><polygon style="fill:#010202" id="polygon4568" points=".9 .1 .9 4.1 2.9 4.1 2.9 2.1 4.9 2.1 4.9 .1" class="st0"/><polygon style="fill:#010202" id="polygon4570" points="22.8 4 22.8 0 18.8 0 18.8 2 20.8 2 20.8 4" class="st0"/><rect style="fill:#010202" id="rect4572" width="2" height="4.7" x="20.8" y="7" class="st0"/><rect style="fill:#010202" id="rect4574" width="4.7" height="2" x="9.5" y="0" class="st0"/><polygon style="fill:#010202" id="polygon4576" points="2.9 8.8 .9 8.8 .9 13.1 2.9 12.5" class="st0"/><polygon style="fill:#010202" id="polygon4578" points="10.6 20.1 9.6 22.1 14.2 22.1 14.2 20.1" class="st0"/></g><path style="fill:#010202" id="path4580" d="m 12.5,11.4 -5.2,11 -1.6,-4 -4.4,4 L 0,21 4.5,17.1 0.8,15.1 12.5,11.4" class="st0"/><polygon style="fill:#010202" id="polygon4582" points="17.9 15.1 17.9 5.3 8.1 5.3 8.1 11.1 15.6 8.7 12.5 15.1" class="st0"/><g id="g4584"><polygon style="fill:#010202" id="polygon4586" points=".9 .1 .9 4.1 2.9 4.1 2.9 2.1 4.9 2.1 4.9 .1" class="st0"/><polygon style="fill:#010202" id="polygon4588" points="22.8 4 22.8 0 18.8 0 18.8 2 20.8 2 20.8 4" class="st0"/><rect style="fill:#010202" id="rect4590" width="2" height="4.7" x="20.8" y="7" class="st0"/><rect style="fill:#010202" id="rect4592" width="4.7" height="2" x="9.5" y="0" class="st0"/><polygon style="fill:#010202" id="polygon4594" points="2.9 8.8 .9 8.8 .9 13.1 2.9 12.5" class="st0"/><polygon style="fill:#010202" id="polygon4596" points="10.6 20.1 9.6 22.1 14.2 22.1 14.2 20.1" class="st0"/></g><rect style="fill:#010202" id="rect4598" width="9.8" height="1.9" x="18.9" y="20.1" class="st0" transform="matrix(0.7071,-0.7071,0.7071,0.7071,-7.8935,23.0133)"/><circle style="fill:none;stroke:#010202;stroke-width:2;stroke-miterlimit:10" id="circle4600" cx="23.8" cy="21" r="5.3" class="st1"/></g><rect id="rect10256" width="30.557" height="29.294" x="76.562" y="129.072" style="fill:#fae7e7;fill-opacity:0"/></g><g id="select-grouped-hilited" style="filter:url(#filter4992)"><g id="g4537" transform="translate(116.56215,130.90338)" style="display:inline"><path style="fill:#010202" id="path4490" d="m 12.5,11.4 -5.2,11 -1.6,-4 -4.4,4 L 0,21 4.5,17.1 0.8,15.1 12.5,11.4" class="st0"/><polygon style="fill:#010202" id="polygon4492" points="12.5 15.1 17.9 15.1 17.9 5.3 8.1 5.3 8.1 11.1 15.6 8.7" class="st0"/><g id="g4494"><polygon style="fill:#010202" id="polygon4496" points="4.9 .1 .9 .1 .9 4.1 2.9 4.1 2.9 2.1 4.9 2.1" class="st0"/><polygon style="fill:#010202" id="polygon4498" points="20.8 18.1 20.8 20.1 18.8 20.1 18.8 22.1 22.8 22.1 22.8 18.1" class="st0"/><polygon style="fill:#010202" id="polygon4500" points="20.8 4 22.8 4 22.8 0 18.8 0 18.8 2 20.8 2" class="st0"/><rect style="fill:#010202" id="rect4502" width="2" height="4.7" x="20.8" y="8.7" class="st0"/><rect style="fill:#010202" id="rect4504" width="4.7" height="2" x="9.5" y="0" class="st0"/><polygon style="fill:#010202" id="polygon4506" points=".9 8.8 .9 13.1 2.9 12.5 2.9 8.8" class="st0"/><polygon style="fill:#010202" id="polygon4508" points="9.6 22.1 14.2 22.1 14.2 20.1 10.6 20.1" class="st0"/></g><path style="fill:#010202" id="path4510" d="m 12.5,11.4 -5.2,11 -1.6,-4 -4.4,4 L 0,21 4.5,17.1 0.8,15.1 12.5,11.4" class="st0"/><polygon style="fill:#010202" id="polygon4512" points="12.5 15.1 17.9 15.1 17.9 5.3 8.1 5.3 8.1 11.1 15.6 8.7" class="st0"/><g id="g4514"><polygon style="fill:#010202" id="polygon4516" points="4.9 .1 .9 .1 .9 4.1 2.9 4.1 2.9 2.1 4.9 2.1" class="st0"/><polygon style="fill:#010202" id="polygon4518" points="20.8 18.1 20.8 20.1 18.8 20.1 18.8 22.1 22.8 22.1 22.8 18.1" class="st0"/><polygon style="fill:#010202" id="polygon4520" points="20.8 4 22.8 4 22.8 0 18.8 0 18.8 2 20.8 2" class="st0"/><rect style="fill:#010202" id="rect4522" width="2" height="4.7" x="20.8" y="8.7" class="st0"/><rect style="fill:#010202" id="rect4524" width="4.7" height="2" x="9.5" y="0" class="st0"/><polygon style="fill:#010202" id="polygon4526" points=".9 8.8 .9 13.1 2.9 12.5 2.9 8.8" class="st0"/><polygon style="fill:#010202" id="polygon4528" points="9.6 22.1 14.2 22.1 14.2 20.1 10.6 20.1" class="st0"/></g></g><rect style="fill:#fae7e7;fill-opacity:0" id="rect10258" width="30.557" height="29.294" x="116.562" y="129.072"/></g><g id="test" style="filter:url(#filter5004)"><g id="g4634" transform="translate(36.562149,132.62931)" style="display:inline"><path style="fill:#010202" id="path4636" d="M 31.1,1.2 C 31.1,0.5 30.6,0 29.9,0 L 1.2,0 C 0.5,0 0,0.5 0,1.2 l 0,19.1 c 0,0.7 0.5,1.2 1.2,1.2 l 28.7,0 c 0.7,0 1.2,-0.5 1.2,-1.2 l 0,-19.1 z m -29,10.9 c -0.7,0 -1.3,-0.6 -1.3,-1.3 0,-0.7 0.6,-1.3 1.3,-1.3 0.7,0 1.3,0.6 1.3,1.3 0.1,0.7 -0.5,1.3 -1.3,1.3 z m 2.2,8.3 0,-19.3 23.7,0 0,19.3 -23.7,0 z m 24.8,-6.7 c -0.2,0 -0.4,-0.2 -0.4,-0.4 l 0,-5 c 0,-0.2 0.2,-0.4 0.4,-0.4 0.2,0 0.4,0.2 0.4,0.4 l 0,5 c 0,0.2 -0.2,0.4 -0.4,0.4 z" class="st0"/><path style="fill:#010202" id="path4638" d="M 12.8,6 C 12.7,6 12.6,6 12.5,6 12.2,6 12,6.2 12,6.6 l 0,0 0,9.4 0,0 c 0,0.3 0.2,0.6 0.5,0.6 0.1,0 0.2,0 0.3,-0.1 l 7.6,-4.6 c 0.2,-0.2 0.3,-0.4 0.3,-0.6 0,-0.3 -0.1,-0.5 -0.3,-0.6 L 12.8,6 Z" class="st0"/></g><rect id="rect10260" width="31.315" height="29.294" x="36.562" y="129.072" style="fill:#fae7e7;fill-opacity:0"/></g><g id="sample-stacks" style="filter:url(#filter5016)"><g id="g4462" transform="translate(156.56215,132.72931)" style="display:inline"><g id="g4464"><path style="fill:#010202" id="path4466" d="m 16.5,0 0,0 0,0 z" class="st0"/><path style="fill:#010202" id="path4468" d="M 23.3,16.4 C 22.5,16.1 21.1,16 20.5,15.8 20.1,15.6 19.4,15.5 19.2,15.2 19,15 19,13.1 19,13.1 c 0,0 0.5,-0.5 0.7,-1 0.2,-0.5 0.4,-2 0.4,-2 0,0 0,0 0.1,0 0.2,0 0.4,-0.1 0.6,-0.8 C 21,8.5 21.3,8 21.2,7.4 21.2,7.1 21,7 20.9,7 20.8,7 20.8,7 20.8,7 20.8,7 21.2,6.4 21.2,4.3 21.2,2.1 19.5,0 16.5,0 c -3.1,0 -4.7,2.1 -4.7,4.3 0,2.1 0.4,2.7 0.4,2.7 0,0 0,0 -0.1,0 -0.1,0 -0.3,0.1 -0.3,0.5 -0.1,0.6 0.2,1.1 0.4,1.9 0.1,0.7 0.4,0.8 0.6,0.8 0.1,0 0.1,0 0.1,0 0,0 0.1,1.5 0.4,2 0.2,0.5 0.7,1 0.7,1 0,0 0,1.8 -0.2,2.1 -0.2,0.2 -0.9,0.4 -1.3,0.6 -0.6,0.2 -1.9,0.3 -2.8,0.6 -0.8,0.3 -3.4,1.5 -3.4,4.8 l 20.4,0 c 0,-3.4 -2.6,-4.6 -3.4,-4.9 z" class="st0"/></g><path style="fill:#010202" id="path4470" d="M 8.2,15.4 C 8.9,15.1 9.5,15.1 10,15 10,15 10.3,14.5 9.4,14.4 9.4,14.4 8.1,14.1 8,13.9 7.9,13.7 7.9,12.7 7.9,12.7 7.9,12.7 9.7,12.6 10.4,12 9.3,10.3 9.9,8.3 9.6,6.4 9.4,4.5 8.3,3.4 6.1,3.4 c 0,0 0,0 -0.1,0 l 0,0 C 4,3.5 3,4.7 2.7,6.6 2.4,8.5 3.1,10.7 2,12.2 c 0.7,0.6 2.3,0.6 2.5,0.6 0,0 0,0 0,0 l 0,0 c 0,0 0.1,1 -0.1,1.2 C 4.3,14.2 3.8,14.3 3.5,14.4 2.9,14.5 2.2,14.8 1.6,15 1.1,15.1 0,16.2 0,17.6 l 5.9,0 C 6.1,17.1 7.2,16 8.2,15.4 Z" class="st0"/><path style="fill:#010202" id="path4472" d="M 30.2,6.5 C 30,4.6 28.9,3.5 26.8,3.5 l 0,0 c -0.1,0 -0.1,0 -0.1,0 -2.1,0 -3.2,1.2 -3.5,3 -0.2,1.9 0.4,3.9 -0.8,5.6 0.7,0.6 2.5,0.7 2.5,0.7 0,0 0.1,1 -0.1,1.2 -0.1,0.2 -1.4,0.5 -1.4,0.5 -0.9,0.2 -0.6,0.6 -0.6,0.6 0.5,0.1 1.2,0.1 1.8,0.4 1.1,0.5 2.2,1.6 2.4,2.2 l 5.9,0 C 32.9,16.3 31.8,15.2 31.2,15 30.6,14.8 29.9,14.6 29.3,14.4 29,14.3 28.6,14.2 28.4,14 28.3,13.8 28.3,12.8 28.3,12.8 l 0,0 c 0,0 0,0 0,0 0.2,0 1.8,0 2.5,-0.6" class="st0"/></g><rect style="fill:#fae7e7;fill-opacity:0" id="rect10262" width="33.082" height="29.294" x="156.562" y="129.072"/></g><g id="resources" style="filter:url(#filter5028)"><g id="g4440" transform="translate(196.56215,132.82074)" style="display:inline"><path style="fill:#010202" id="path4442" d="m 1.1,22 3.7,0 c 0.6,0 1.1,-0.5 1.1,-1.1 L 5.9,1.1 C 5.8,0.5 5.3,0 4.7,0 L 1.1,0 C 0.5,0 0,0.5 0,1.1 L 0,20.9 C 0,21.5 0.5,22 1.1,22 Z M 1,3.1 4.8,3.1 C 5.1,3.1 5.3,3.3 5.3,3.6 5.3,3.9 5.1,4 4.8,4 L 1,4 C 0.8,4 0.6,3.8 0.6,3.6 0.6,3.4 0.8,3.1 1,3.1 Z m 0,2 3.8,0 C 5.1,5.1 5.3,5.3 5.3,5.6 5.3,5.9 5.1,6 4.8,6 L 1,6 C 0.8,6 0.6,5.8 0.6,5.5 0.6,5.2 0.8,5.1 1,5.1 Z M 1,7 4.8,7 C 5.1,7 5.3,7.2 5.3,7.5 5.3,7.8 5.1,8 4.8,8 L 1,8 C 0.7,8 0.5,7.8 0.5,7.5 0.6,7.2 0.8,7 1,7 Z" class="st0"/><path style="fill:#010202" id="path4444" d="m 8.2,22 3.7,0 C 12.5,22 13,21.5 13,20.9 L 13,1.1 C 13,0.5 12.5,0 11.9,0 L 8.2,0 C 7.6,0 7.1,0.5 7.1,1.1 l 0,19.8 c 0,0.6 0.5,1.1 1.1,1.1 z M 8.1,3.1 l 3.8,0 c 0.3,0 0.5,0.2 0.5,0.5 0,0.3 -0.3,0.4 -0.5,0.4 L 8.1,4 C 7.8,4 7.6,3.8 7.6,3.6 7.6,3.4 7.8,3.1 8.1,3.1 Z m 0,2 3.8,0 c 0.3,0 0.5,0.2 0.5,0.5 0,0.3 -0.3,0.4 -0.5,0.4 L 8.1,6 C 7.8,6 7.6,5.8 7.6,5.5 7.6,5.2 7.8,5.1 8.1,5.1 Z m 0,1.9 3.8,0 c 0.3,0 0.5,0.2 0.5,0.5 0,0.3 -0.2,0.5 -0.5,0.5 L 8.1,8 C 7.8,8 7.6,7.8 7.6,7.5 7.6,7.2 7.8,7 8.1,7 Z" class="st0"/><path style="fill:#010202" id="path4446" d="m 17.7,21.3 c 0.1,0.5 0.7,0.9 1.2,0.7 l 3.2,-0.8 C 22.6,21.1 23,20.5 22.8,20 L 19,3.6 C 18.9,3.1 18.3,2.7 17.8,2.9 l -3.2,0.8 c -0.5,0.1 -0.9,0.7 -0.7,1.2 l 3.8,16.4 z m 2.1,-12 c 0.1,0.2 -0.1,0.5 -0.3,0.5 l -3.3,0.8 C 16,10.7 15.7,10.5 15.7,10.3 15.6,10.1 15.8,9.8 16,9.8 L 19.3,9 c 0.2,0 0.4,0.1 0.5,0.3 z M 19.4,7.7 c 0.1,0.2 -0.1,0.5 -0.3,0.5 L 15.8,9 C 15.6,9.1 15.3,8.9 15.3,8.7 15.2,8.5 15.4,8.2 15.6,8.2 l 3.3,-0.8 c 0.2,-0.1 0.4,0 0.5,0.3 z M 15.2,6.4 18.5,5.6 C 18.7,5.5 19,5.7 19,5.9 19.1,6.1 18.9,6.4 18.7,6.4 L 15.4,7.2 C 15.2,7.3 14.9,7.1 14.9,6.9 14.8,6.7 14.9,6.4 15.2,6.4 Z" class="st0"/></g><rect id="rect10264" width="23.234" height="29.294" x="196.562" y="129.072" style="fill:#fae7e7;fill-opacity:0"/></g><g id="messages-hilited" style="filter:url(#filter5040)"><g id="g4432" transform="translate(236.56215,134.95022)" style="display:inline"><path style="fill:#231f20" id="path4419" d="m 16,14.3 c 0,-1.5 0.4,-2.9 1.1,-4.1 L 15.7,9 13,11.5 10.2,9.1 4,14.4 3.2,13.6 9.4,8.3 3.2,3 4,2.2 l 9,7.7 8.9,-7.7 0.9,0.8 -6.1,5.3 1.1,1 c 1.5,-1.9 3.8,-3.1 6.4,-3.1 0.6,0 1.2,0.1 1.8,0.2 L 26,2.1 C 26,0.9 25.1,0 23.9,0 L 2.1,0 C 0.9,0 0,0.9 0,2.1 l 0,6.2 0,6.2 c 0,1.1 0.9,2.1 2.1,2.1 l 14.3,0 C 16.1,15.9 16,15.1 16,14.3 Z" class="st0"/><rect style="fill:#010202" id="rect4421" width="9.8" height="1.9" x="19.2" y="13.4" class="st1" transform="matrix(0.7071,-0.7071,0.7071,0.7071,-3.0679,21.2899)"/><circle style="fill:none;stroke:#010202;stroke-width:2;stroke-miterlimit:10" id="circle4423" cx="24.2" cy="14.3" r="5.3" class="st2"/></g><rect style="fill:#fae7e7;fill-opacity:0" id="rect10266" width="31.062" height="29.294" x="236.562" y="129.072"/></g><g id="messages" style="filter:url(#filter5052)"><path style="display:inline;fill:#231f20" id="path4406" d="m 278.66215,151.67931 21.8,0 c 1.2,0 2.1,-0.9 2.1,-2.1 l 0,-6.2 0,-6.2 c 0,-1.2 -0.9,-2.1 -2.1,-2.1 l -21.8,0 c -1.2,0 -2.1,0.9 -2.1,2.1 l 0,6.2 0,6.2 c 0,1.2 0.9,2.1 2.1,2.1 z m 1.1,-13.6 0.8,-0.8 9,7.7 8.9,-7.7 0.9,0.8 -6.1,5.3 6.1,5.3 -0.8,0.8 -6.2,-5.3 -2.8,2.4 -2.8,-2.4 -6.2,5.3 -0.8,-0.8 6.2,-5.3 -6.2,-5.3 z" class="st0"/><rect id="rect10268" width="31.062" height="29.294" x="276.562" y="129.072" style="fill:#fae7e7;fill-opacity:0"/></g><g id="message-box" style="filter:url(#filter5064)"><g id="g4399" transform="translate(316.56215,131.55444)" style="display:inline"><path style="fill:#131111" id="path4388" d="M 25.7,0 0.8,0 C 0.4,0 0,0.4 0,0.8 L 0,21.2 C 0,21.6 0.4,22 0.8,22 l 24.9,0 c 0.4,0 0.8,-0.4 0.8,-0.8 l 0,-20.4 C 26.5,0.4 26.1,0 25.7,0 Z m -4.2,1.1 c 0.6,0 1.1,0.5 1.1,1.1 0,0.6 -0.5,1.1 -1.1,1.1 -0.6,0 -1.1,-0.5 -1.1,-1.1 0,-0.6 0.5,-1.1 1.1,-1.1 z m 4.1,19.4 c 0,0.3 -0.2,0.5 -0.5,0.5 L 1.4,21.1 c -0.3,0 -0.5,-0.2 -0.5,-0.5 l 0,-16.2 24.7,0 0,16.1 z M 24.5,3.3 c -0.6,0 -1.1,-0.5 -1.1,-1.1 0,-0.6 0.5,-1.1 1.1,-1.1 0.6,0 1.1,0.5 1.1,1.1 0,0.6 -0.5,1.1 -1.1,1.1 z" class="st0"/><path style="fill:#131111" id="path4390" d="M 26.1,5.9 0.2,5.9 C 0.1,5.9 0,6 0,6.1 l 0,15.1 c 0,0.1 0.1,0.2 0.2,0.2 l 23.8,0 c 0.1,0 2.3,-0.1 2.3,-0.2 l 0,-15.1 C 26.3,6 26.2,5.9 26.1,5.9 Z M 3.1,14.6 5.2,12.3 3.1,10 4,9 l 3,3.3 0,0 0,0 -3,3.3 -0.9,-1 z m 8.6,1 -4.7,0 0,-1 4.7,0 0,1 z" class="st0"/></g><rect style="fill:#fae7e7;fill-opacity:0" id="rect10270" width="26.769" height="29.294" x="316.562" y="129.072"/></g><g id="group-hilited" style="filter:url(#filter5076)"><g id="g4349" transform="translate(356.56215,131.35839)" style="display:inline"><g id="g4313"><g id="g4315"><polygon style="fill:#010202" id="polygon4317" points="20.9 24.3 20.9 22.3 22.9 22.3 22.9 20.3 24.9 20.3 24.9 24.3" class="st0"/></g><g id="g4319"><rect style="fill:#010202" id="rect4321" width="4.7" height="2" x="11.6" y="22.3" class="st0"/></g><g id="g4323"><polygon style="fill:#010202" id="polygon4325" points="2.9 24.3 2.9 20.3 4.9 20.3 4.9 22.3 6.9 22.3 6.9 24.3" class="st0"/></g><g id="g4327"><polygon style="fill:#010202" id="polygon4329" points="22.9 6.3 22.9 4.3 20.9 4.3 20.9 2.3 24.9 2.3 24.9 6.3" class="st0"/></g><g id="g4331"><rect style="fill:#010202" id="rect4333" width="2" height="4.7" x="22.9" y="11" class="st0"/></g></g><g id="Icons_with_numbers_4_"><g id="Group_4_" transform="translate(0,-528)"><path style="fill:#010202" id="Oval_210_copy_4_" d="m 3.5,534 0,1.7 6.9,0 0,-1.7 -6.9,0 z m 3.4,7.8 c -3.8,0 -6.9,-3.1 -6.9,-6.9 0,-3.8 3.1,-6.9 6.9,-6.9 3.8,0 6.9,3.1 6.9,6.9 0,3.8 -3.1,6.9 -6.9,6.9 z" class="st0"/></g></g><path style="fill:#010202" id="path4338" d="m 2.9,14.5 0,3.1 2,0 0,-2.4 C 4.2,15.1 3.5,14.8 2.9,14.5 Z" class="st0"/><path style="fill:#010202" id="path4340" d="m 14.1,2.3 c 0.4,0.6 0.7,1.3 0.9,2 l 3.2,0 0,-2 -4.1,0 z" class="st0"/></g><rect id="rect10272" width="25.254" height="29.294" x="356.562" y="129.072" style="fill:#fae7e7;fill-opacity:0"/></g><g id="group" style="filter:url(#filter5088)"><g id="g4292" transform="translate(396.56215,131.35839)" style="display:inline"><g id="g4256"><g id="g4258"><polygon style="fill:#010202" id="polygon4260" points="22.9 22.3 22.9 20.3 24.9 20.3 24.9 24.3 20.9 24.3 20.9 22.3" class="st0"/></g><g id="g4262"><rect style="fill:#010202" id="rect4264" width="4.7" height="2" x="11.6" y="22.3" class="st0"/></g><g id="g4266"><polygon style="fill:#010202" id="polygon4268" points="4.9 20.3 4.9 22.3 6.9 22.3 6.9 24.3 2.9 24.3 2.9 20.3" class="st0"/></g><g id="g4270"><polygon style="fill:#010202" id="polygon4272" points="20.9 4.3 20.9 2.3 24.9 2.3 24.9 6.3 22.9 6.3 22.9 4.3" class="st0"/></g><g id="g4274"><rect style="fill:#010202" id="rect4276" width="2" height="4.7" x="22.9" y="11" class="st0"/></g></g><g id="Icons_with_numbers_2_"><g id="Group_2_" transform="translate(0,-528)"><path style="fill:#010202" id="Oval_210_copy_2_" d="m 3.5,534 0,1.7 2.5,0 0,2.6 1.7,0 0,-2.6 2.6,0 0,-1.7 -2.5,0 0,-2.6 -1.8,0 0,2.6 -2.5,0 z m 3.4,7.8 c -3.8,0 -6.9,-3.1 -6.9,-6.9 0,-3.8 3.1,-6.9 6.9,-6.9 3.8,0 6.9,3.1 6.9,6.9 0,3.8 -3.1,6.9 -6.9,6.9 z" class="st0"/></g></g><path style="fill:#010202" id="path4281" d="m 2.9,14.5 0,3.1 2,0 0,-2.4 C 4.2,15.1 3.5,14.8 2.9,14.5 Z" class="st0"/><path style="fill:#010202" id="path4283" d="m 14.1,2.3 c 0.4,0.6 0.7,1.3 0.9,2 l 3.2,0 0,-2 -4.1,0 z" class="st0"/></g><rect style="fill:#fae7e7;fill-opacity:0" id="rect10274" width="25.254" height="29.294" x="396.562" y="129.072"/></g><g id="errors-hilited" style="filter:url(#filter5100)"><g id="g4248" transform="translate(436.56821,132.90226)" style="display:inline"><rect style="fill:#010202" id="rect4235" width="9.8" height="1.9" x="16.8" y="15.6" class="st0" transform="matrix(0.7071,-0.7071,0.7071,0.7071,-5.3318,20.1807)"/><path style="fill:#010202" id="path4237" d="m 13.4,16.5 c 0,-3.3 1.9,-6.1 4.7,-7.4 L 13.7,1.3 c -0.9,-1.7 -3.3,-1.7 -4.2,0 L 0.3,17.5 c -0.9,1.6 0.3,3.6 2.1,3.6 l 12.3,0 c -0.8,-1.3 -1.3,-2.9 -1.3,-4.6 z m -0.8,-0.8 c 0,0.1 -0.1,0.3 -0.2,0.3 l -1.6,0 c -0.1,0 -0.3,-0.1 -0.3,-0.3 l 0,-1.5 c 0,-0.1 0.1,-0.3 0.3,-0.3 l 1.6,0 c 0.1,0 0.2,0.1 0.2,0.3 l 0,1.5 z m 0,-2.9 c 0,0.1 -0.1,0.2 -0.3,0.2 l -1.6,0 c -0.2,0 -0.3,-0.1 -0.3,-0.2 l -0.1,-6 c 0,0 0,-0.1 0.1,-0.1 0,0 0.1,-0.1 0.2,-0.1 l 1.8,0 c 0.1,0 0.1,0 0.2,0.1 0,0 0.1,0.1 0.1,0.1 l -0.1,6 z" class="st0"/><circle style="fill:none;stroke:#010202;stroke-width:2;stroke-miterlimit:10" id="circle4239" cx="21.7" cy="16.5" r="5.3" class="st1"/></g><rect id="rect10276" width="28.537" height="29.294" x="436.562" y="129.072" style="fill:#fae7e7;fill-opacity:0"/></g><g id="errors" style="filter:url(#filter5112)"><path style="display:inline;fill:#010202" id="path4222" d="m 499.46718,150.43292 -9.2,-16.3 c -0.9,-1.7 -3.3,-1.7 -4.2,0 l -9.1,16.3 c -0.9,1.6 0.3,3.6 2.1,3.6 l 18.2,0 c 1.9,0 3.1,-2 2.2,-3.6 z m -10.2,-0.8 c 0,0.1 -0.1,0.3 -0.2,0.3 l -1.6,0 c -0.1,0 -0.3,-0.1 -0.3,-0.3 l 0,-1.5 c 0,-0.1 0.1,-0.3 0.3,-0.3 l 1.6,0 c 0.1,0 0.2,0.1 0.2,0.3 l 0,1.5 z m 0,-2.9 c 0,0.1 -0.1,0.2 -0.3,0.2 l -1.6,0 c -0.2,0 -0.3,-0.1 -0.3,-0.2 l -0.1,-6 c 0,0 0,-0.1 0.1,-0.1 0,0 0.1,-0.1 0.2,-0.1 l 1.8,0 c 0.1,0 0.1,0 0.2,0.1 0,0 0.1,0.1 0.1,0.1 l -0.1,6 z" class="st0"/><rect style="fill:#fae7e7;fill-opacity:0" id="rect10278" width="28.537" height="29.294" x="476.562" y="129.072"/></g><g id="inspector" style="filter:url(#filter5124)"><g id="g4381" transform="translate(516.56215,131.44385)" style="display:inline"><path style="fill:#131111" id="path4370" d="M 15.1,6 C 12.4,6 10,8.3 10,11 c 0,1.2 0.4,2.4 1.2,3.3 L 9,15.2 6.7,17.6 c -0.2,0.2 -0.3,0.5 -0.3,0.8 0,0.7 0.6,1.4 1.4,1.4 0.3,0 0.6,-0.1 0.8,-0.3 l 2.4,-2.4 0.9,-2.3 c 1,0.8 2.1,1.2 3.3,1.2 1.3,0 2.6,-0.5 3.6,-1.5 1,-1 1.5,-2.3 1.5,-3.6 C 20.1,8.3 17.8,6 15.1,6 Z m 0,8.1 c -0.8,0 -1.6,-0.3 -2.2,-0.9 C 12.3,12.6 12,11.8 12,11 c 0,-1.7 1.4,-3.1 3.1,-3.1 1.7,0 3.1,1.4 3.1,3.1 0,1.7 -1.4,3.1 -3.1,3.1 z" class="st0"/><path style="fill:#131111" id="path4372" d="M 25.7,0 0.8,0 C 0.4,0 0,0.4 0,0.8 L 0,21.2 C 0,21.6 0.4,22 0.8,22 l 24.9,0 c 0.4,0 0.8,-0.4 0.8,-0.8 l 0,-20.4 C 26.5,0.4 26.1,0 25.7,0 Z m -4.2,1.1 c 0.6,0 1.1,0.5 1.1,1.1 0,0.6 -0.5,1.1 -1.1,1.1 -0.6,0 -1.1,-0.5 -1.1,-1.1 0,-0.6 0.5,-1.1 1.1,-1.1 z m 4.1,19.4 c 0,0.3 -0.2,0.5 -0.5,0.5 L 1.4,21.1 c -0.3,0 -0.5,-0.2 -0.5,-0.5 l 0,-16.2 24.7,0 0,16.1 z M 24.5,3.3 c -0.6,0 -1.1,-0.5 -1.1,-1.1 0,-0.6 0.5,-1.1 1.1,-1.1 0.6,0 1.1,0.5 1.1,1.1 0,0.6 -0.5,1.1 -1.1,1.1 z" class="st0"/></g><rect id="rect10280" width="26.517" height="29.294" x="516.562" y="129.072" style="fill:#fae7e7;fill-opacity:0"/></g><g id="dictionary" style="filter:url(#filter5136)"><g id="g4116" transform="translate(596.56215,132.10395)" style="display:inline"><path style="fill:#131111" id="path4105" d="M 25.7,0 0.8,0 C 0.4,0 0,0.4 0,0.8 L 0,21.2 C 0,21.6 0.4,22 0.8,22 l 24.9,0 c 0.4,0 0.8,-0.4 0.8,-0.8 l 0,-20.4 C 26.5,0.4 26.1,0 25.7,0 Z m -4.2,1.1 c 0.6,0 1.1,0.5 1.1,1.1 0,0.6 -0.5,1.1 -1.1,1.1 -0.6,0 -1.1,-0.5 -1.1,-1.1 0,-0.6 0.5,-1.1 1.1,-1.1 z m 4.1,19.4 c 0,0.3 -0.2,0.5 -0.5,0.5 L 1.4,21.1 c -0.3,0 -0.5,-0.2 -0.5,-0.5 l 0,-16.2 24.7,0 0,16.1 z M 24.5,3.3 c -0.6,0 -1.1,-0.5 -1.1,-1.1 0,-0.6 0.5,-1.1 1.1,-1.1 0.6,0 1.1,0.5 1.1,1.1 0,0.6 -0.5,1.1 -1.1,1.1 z" class="st0"/><path style="fill:#241f20" id="path4107" d="m 20.7,9.1 0,0 c -0.3,0 -0.3,-0.2 -0.3,-0.3 l 0,-1.7 c 0,-0.2 -0.1,-0.3 -0.3,-0.3 l -4.8,0 c -1.2,0 -1.6,0.4 -1.7,0.6 l 0,0 0,0 -0.1,0.1 0,0 c -0.1,0.2 -0.2,0.1 -0.3,0 L 13,7.3 12.9,7.2 C 12.8,7 12.4,6.7 11.6,6.7 l -5.1,0 C 6.3,6.7 6.2,6.8 6.2,7 l 0,1.6 C 6.2,9 6,9.1 5.9,9.1 l -0.1,0 C 5.7,9.1 5.5,9.2 5.5,9.5 l 0,7.8 c 0,0.2 0.2,0.3 0.3,0.3 l 4.6,0 c 1.5,0 2.1,0.6 2.3,0.8 l 0.1,0.1 0,0 c 0,0 0.3,0.3 0.6,0 l 0,0 0.1,-0.1 0,0 0,0 0.1,-0.1 c 0,0 0,0 0.1,-0.1 0.2,-0.2 0.9,-0.7 2.1,-0.7 l 4.8,0 c 0.2,0 0.3,-0.2 0.3,-0.3 l 0,-7.8 c 0,-0.3 -0.2,-0.3 -0.2,-0.3 z m -1.1,7 c 0,0.2 -0.1,0.3 -0.3,0.3 l -3.9,0 C 14,16.4 13.5,17 13.5,17 l -0.1,0.1 0,0 0,0 c -0.1,0.2 -0.3,0 -0.3,0 L 13,17 c -0.1,-0.1 -0.6,-0.6 -1.8,-0.6 l -4,0 C 7,16.4 6.9,16.3 6.9,16.1 l 0,-8.4 C 6.9,7.5 7,7.4 7.2,7.4 l 3.1,0 c 2.3,0 2.6,1.3 2.6,1.7 l 0,5.9 c 0,0.4 0.2,0.5 0.3,0.5 l 0.2,0 c 0.1,0 0.3,-0.1 0.3,-0.4 l 0,-6 0,0 c 0,-0.5 0.2,-1.6 1.6,-1.6 l 4.1,0 c 0.2,0 0.3,0.1 0.3,0.3 l 0,8.3 z" class="st1"/></g><rect style="fill:#fae7e7;fill-opacity:0" id="rect10284" width="26.517" height="29.294" x="596.562" y="129.072"/></g><g id="start-editing" style="filter:url(#filter5148)"><g id="g5763" style="display:inline" transform="translate(369.11183,110.08761)"><g id="g4123" transform="translate(267.44556,19.974753)"><g id="g4125"><path style="fill:#231f20" id="path4127" d="m 6.2,13.5 6.2,2.3 C 12.7,15.9 13,15.7 13,15.4 L 12.7,8.8 c 0,-0.1 0,-0.3 -0.1,-0.4 l 0,0 c 0,0 0,0 0,-0.1 l -4.4,-6 -1.6,1.1 4,5.4 C 10.8,9 10.7,9.3 10.5,9.5 L 10.2,9.8 C 9.9,9.9 9.6,9.8 9.5,9.6 l -4,-5.4 -1.4,1 4,5.5 C 8.2,10.9 8.2,11.2 8,11.3 L 7.6,11.6 C 7.4,11.7 7.1,11.7 7,11.5 L 3,6 1.4,7.2 5.7,13 c 0.1,0.2 0.2,0.4 0.5,0.5 z m 1.1,-0.7 4.3,-3.1 c 0.3,-0.2 0.7,0.1 0.7,0.5 l 0.1,3.6 c -0.1,0 -0.1,0 -0.2,0.1 l -1.3,0.9 c 0,0 0,0 0,0 L 7.6,13.7 C 7.2,13.5 7,12.9 7.3,12.8 Z" class="st0"/><path style="fill:#231f20" id="path4129" d="M 1.1,6.8 0.6,6.1 C -0.4,4.8 -0.1,3 1.2,2 l 2,-1.5 c 1.3,-0.9 3.1,-0.7 4.1,0.6 l 0.5,0.7 -6.7,5 z" class="st0"/></g></g><g id="g4131" transform="translate(267.44556,19.974753)"><polygon style="fill:#010202" id="polygon4133" points="22.4 23.2 20.4 23.2 20.4 25.2 24.4 25.2 24.4 21.2 22.4 21.2" class="st1"/><rect style="fill:#010202" id="rect4135" width="4.7" height="2" x="11.1" y="23.2" class="st1"/><polygon style="fill:#010202" id="polygon4137" points="4.4 21.2 2.4 21.2 2.4 25.2 6.4 25.2 6.4 23.2 4.4 23.2" class="st1"/><polygon style="fill:#010202" id="polygon4139" points="20.4 3.3 20.4 5.3 22.4 5.3 22.4 7.3 24.4 7.3 24.4 3.3" class="st1"/><rect style="fill:#010202" id="rect4141" width="2" height="4.7" x="22.4" y="11.9" class="st1"/><polygon style="fill:#010202" id="polygon4143" points="4.4 14.9 2.4 12.2 2.4 16.6 4.4 16.6" class="st1"/><polygon style="fill:#010202" id="polygon4145" points="15.8 5.3 15.8 3.3 11.1 3.3 12.6 5.3" class="st1"/></g></g><rect id="rect10286" width="24.749" height="29.294" x="636.31" y="129.072" style="fill:#fae7e7;fill-opacity:0"/></g><g id="start-editing-hilited" style="filter:url(#filter5160)"><g style="display:inline;image-rendering:optimizeQuality" id="g4204" transform="translate(558.85739,133.50714)"><g id="g4171"><g id="g4173"><path style="fill:#231f20" id="path4175" d="m 6.7,10.8 -1.8,4.8 c -0.1,0.3 0,0.5 0.3,0.4 l 5.2,-0.2 c 0.1,0 0.2,0 0.3,-0.1 l 0,0 c 0,0 0,0 0,0 l 4.7,-3.5 -0.8,-1.1 -4.3,3.1 C 10.1,14.3 9.9,14.3 9.8,14.1 L 9.6,13.8 C 9.5,13.6 9.5,13.4 9.7,13.3 L 14,10.2 13.2,9.1 8.9,12.3 C 8.7,12.4 8.5,12.4 8.4,12.2 L 8.2,11.9 C 8,11.7 8,11.5 8.2,11.4 L 12.5,8.2 11.6,7 7,10.4 c -0.1,0 -0.3,0.2 -0.3,0.4 z m 0.5,0.9 2.5,3.3 c 0.1,0.2 -0.1,0.5 -0.4,0.6 l -2.8,0.1 c 0,0 0,-0.1 0,-0.1 l -0.7,-1 c 0,0 0,0 0,0 L 6.7,12 c 0,-0.4 0.4,-0.5 0.5,-0.3 z" class="st0"/><path style="fill:#231f20" id="path4177" d="m 12,6.8 0.5,-0.4 c 1,-0.7 2.4,-0.5 3.2,0.5 l 1.1,1.6 c 0.7,1 0.5,2.4 -0.5,3.2 L 15.8,12 12,6.8 Z" class="st0"/></g></g><g id="g4179"><polygon style="fill:#010202" id="polygon4181" points="22.1 18 20.1 18 20.1 20 18.1 20 18.1 22 22.1 22" class="st1"/><polygon style="fill:#010202" id="polygon4183" points="13.1 22 13.4 22 13.4 20 8.8 20 8.8 20 8.8 22 8.8 22 13.1 22" class="st1"/><polygon style="fill:#010202" id="polygon4185" points="20.1 4 20.1 4 22.1 4 22.1 4 22.1 0 22.1 0 18.1 0 18.1 0 18.1 2 18.1 2 20.1 2" class="st1"/><polygon style="fill:#010202" id="polygon4187" points="22.1 13.2 22.1 8.7 22.1 8.7 20.1 8.7 20.1 8.7 20.1 12.3 20.1 13.3 22.1 13.3" class="st1"/><polygon style="fill:#010202" id="polygon4189" points=".1 22 4.1 22 4.1 22 4.1 20 4.1 20 2.1 20 2.1 18 2.1 18 .1 18 .1 18 .1 22" class="st1"/><polygon style="fill:#010202" id="polygon4191" points="0 4 2 4 2 2 4 2 4 0 0 0" class="st1"/><rect style="fill:#010202" id="rect4193" width="4.7" height="2" x="8.7" y="0" class="st1"/><rect style="fill:#010202" id="rect4195" width="2" height="4.7" x="0" y="8.7" class="st1"/></g></g><rect style="fill:#fae7e7;fill-opacity:0" id="rect10288" width="24.749" height="29.294" x="556.31" y="129.072"/></g></g><g id="g4591" transform="translate(43.437851,-129.0716)" style="display:inline"><g id="g4593"><g style="display:inline" id="g4595" transform="translate(-43.437851,131.44248)"><path id="path4597" d="M 25.7,0 0.8,0 C 0.4,0 0,0.4 0,0.8 L 0,21.2 C 0,21.6 0.4,22 0.8,22 l 24.9,0 c 0.4,0 0.8,-0.4 0.8,-0.8 l 0,-20.4 C 26.5,0.4 26.1,0 25.7,0 Z m -4.2,1.1 c 0.6,0 1.1,0.5 1.1,1.1 0,0.6 -0.5,1.1 -1.1,1.1 -0.6,0 -1.1,-0.5 -1.1,-1.1 0,-0.6 0.5,-1.1 1.1,-1.1 z m 4.1,19.4 c 0,0.3 -0.2,0.5 -0.5,0.5 L 1.4,21.1 c -0.3,0 -0.5,-0.2 -0.5,-0.5 l 0,-16.2 24.7,0 0,16.1 z M 24.5,3.3 c -0.6,0 -1.1,-0.5 -1.1,-1.1 0,-0.6 0.5,-1.1 1.1,-1.1 0.6,0 1.1,0.5 1.1,1.1 0,0.6 -0.5,1.1 -1.1,1.1 z" class="st0" style="fill:#131111"/><path id="path4599" d="m 19.8,12.5 -0.1,-0.2 c -0.2,-0.6 -0.6,-1.5 -0.6,-2 0,-0.5 0.1,-1 0.3,-1.6 C 19.5,8.3 19.7,8 19.7,8 l 0.7,-1.4 -9.6,0 -0.3,0.6 C 10.3,7.6 9.9,8.6 9.8,9.7 l 1.3,-0.3 c 0.1,-0.7 0.3,-1.2 0.5,-1.6 l 6.9,0 0,0.1 0,0 c 0,0.1 -0.1,0.2 -0.1,0.4 -0.2,0.5 -0.4,1.2 -0.4,1.9 0,0.7 0.3,1.6 0.7,2.5 l 0.1,0.1 c 0.3,0.7 0.6,1.5 0.6,2.1 0,1 -0.4,2 -0.6,2.5 l -6.9,0 c 0.1,-0.1 0.1,-0.3 0.2,-0.5 0,-0.1 0.1,-0.3 0.1,-0.4 L 10.7,17 c -0.1,0.2 -0.2,0.4 -0.2,0.4 l -0.7,1.4 9.6,0 0.3,-0.5 c 0.2,-0.4 0.8,-1.7 0.8,-3.1 0,-0.9 -0.4,-1.8 -0.7,-2.7 z" class="st1" style="fill:#231f20"/><g id="g4601"><path id="path4603" d="m 13.4,15.2 2.6,-3 c 0.1,-0.2 0.1,-0.3 -0.1,-0.4 l -3.8,-1.3 c -0.1,0 -0.2,0 -0.2,0 l 0,0 c 0,0 0,0 0,0 l -4.4,1.2 0.3,1 3.9,-1 c 0.2,0 0.3,0.1 0.4,0.2 l 0.1,0.2 c 0,0.2 -0.1,0.3 -0.2,0.4 l -3.9,1 0.3,1 4,-1 c 0.1,0 0.3,0 0.3,0.2 l 0.1,0.3 c 0,0.1 0,0.3 -0.2,0.3 l -4,1 0.3,1.1 4.2,-1.1 c 0,0 0.2,0 0.3,-0.1 z m -0.2,-0.8 -0.8,-3.1 c 0,-0.2 0.2,-0.4 0.5,-0.3 l 2,0.7 c 0,0 0,0.1 0,0.1 l 0.2,0.9 c 0,0 0,0 0,0 l -1.4,1.6 c -0.1,0.3 -0.4,0.3 -0.5,0.1 z" class="st1" style="fill:#231f20"/><path id="path4605" d="M 8.5,16.6 8,16.7 C 7.1,16.9 6.1,16.4 5.8,15.4 L 5.4,14 C 5.2,13.1 5.7,12.1 6.7,11.8 l 0.5,-0.1 1.3,4.9 z" class="st1" style="fill:#231f20"/></g></g><rect style="fill:#fae7e7;fill-opacity:0" id="rect4607" width="26.264" height="29.294" x="-43.438" y="129.072"/></g><g id="g4610"><g style="display:inline" id="g4612" transform="translate(-3.437851,132.62931)"><polygon id="polygon4614" points="0 7.4 13.5 14.7 27 7.4 13.5 0" class="st0" style="fill:#010202"/><polygon id="polygon4616" points="22.1 16.8 22.1 11.4 13.5 16.2 4.9 11.4 4.9 16.8 13.5 21.5" class="st0" style="fill:#010202"/><path id="path4618" d="m 25.7,7.4 1.3,0 0,8.6 c 0,0.7 -0.5,1.2 -1.2,1.2 l 0,0 c -0.7,0 -1.2,-0.5 -1.2,-1.2 l 0,-7.4 C 24.5,7.9 25.1,7.4 25.7,7.4 Z" class="st0" style="fill:#010202"/></g><rect id="rect4620" width="27.274" height="29.294" x="-3.438" y="129.072" style="fill:#fae7e7;fill-opacity:0"/></g><g id="g4622"><g style="display:inline" id="g4624" transform="translate(76.562149,130.92316)"><path id="path4626" d="m 12.5,11.4 -5.2,11 -1.6,-4 -4.4,4 L 0,21 4.5,17.1 0.8,15.1 12.5,11.4" class="st0" style="fill:#010202"/><polygon id="polygon4628" points="15.6 8.7 12.5 15.1 17.9 15.1 17.9 5.3 8.1 5.3 8.1 11.1" class="st0" style="fill:#010202"/><g id="g4630"><polygon id="polygon4632" points="4.9 2.1 4.9 .1 .9 .1 .9 4.1 2.9 4.1 2.9 2.1" class="st0" style="fill:#010202"/><polygon id="polygon4634" points="20.8 2 20.8 4 22.8 4 22.8 0 18.8 0 18.8 2" class="st0" style="fill:#010202"/><rect id="rect4636" width="2" height="4.7" x="20.8" y="7" class="st0" style="fill:#010202"/><rect id="rect4638" width="4.7" height="2" x="9.5" y="0" class="st0" style="fill:#010202"/><polygon id="polygon4640" points="2.9 8.8 .9 8.8 .9 13.1 2.9 12.5" class="st0" style="fill:#010202"/><polygon id="polygon4642" points="10.6 20.1 9.6 22.1 14.2 22.1 14.2 20.1" class="st0" style="fill:#010202"/></g><path id="path4644" d="m 12.5,11.4 -5.2,11 -1.6,-4 -4.4,4 L 0,21 4.5,17.1 0.8,15.1 12.5,11.4" class="st0" style="fill:#010202"/><polygon id="polygon4646" points="15.6 8.7 12.5 15.1 17.9 15.1 17.9 5.3 8.1 5.3 8.1 11.1" class="st0" style="fill:#010202"/><g id="g4648"><polygon id="polygon4650" points="4.9 2.1 4.9 .1 .9 .1 .9 4.1 2.9 4.1 2.9 2.1" class="st0" style="fill:#010202"/><polygon id="polygon4652" points="20.8 2 20.8 4 22.8 4 22.8 0 18.8 0 18.8 2" class="st0" style="fill:#010202"/><rect id="rect4654" width="2" height="4.7" x="20.8" y="7" class="st0" style="fill:#010202"/><rect id="rect4656" width="4.7" height="2" x="9.5" y="0" class="st0" style="fill:#010202"/><polygon id="polygon4658" points="2.9 8.8 .9 8.8 .9 13.1 2.9 12.5" class="st0" style="fill:#010202"/><polygon id="polygon4660" points="10.6 20.1 9.6 22.1 14.2 22.1 14.2 20.1" class="st0" style="fill:#010202"/></g><rect id="rect4662" width="9.8" height="1.9" x="18.9" y="20.1" class="st0" transform="matrix(0.7071,-0.7071,0.7071,0.7071,-7.8935,23.0133)" style="fill:#010202"/><circle id="circle4664" cx="23.8" cy="21" r="5.3" class="st1" style="fill:none;stroke:#010202;stroke-width:2;stroke-miterlimit:10"/></g><rect style="fill:#fae7e7;fill-opacity:0" id="rect4666" width="30.557" height="29.294" x="76.562" y="129.072"/></g><g id="g4668"><g style="display:inline" id="g4670" transform="translate(116.56215,130.90338)"><path id="path4672" d="m 12.5,11.4 -5.2,11 -1.6,-4 -4.4,4 L 0,21 4.5,17.1 0.8,15.1 12.5,11.4" class="st0" style="fill:#010202"/><polygon id="polygon4674" points="8.1 11.1 15.6 8.7 12.5 15.1 17.9 15.1 17.9 5.3 8.1 5.3" class="st0" style="fill:#010202"/><g id="g4676"><polygon id="polygon4678" points="2.9 2.1 4.9 2.1 4.9 .1 .9 .1 .9 4.1 2.9 4.1" class="st0" style="fill:#010202"/><polygon id="polygon4680" points="22.8 22.1 22.8 18.1 20.8 18.1 20.8 20.1 18.8 20.1 18.8 22.1" class="st0" style="fill:#010202"/><polygon id="polygon4682" points="18.8 2 20.8 2 20.8 4 22.8 4 22.8 0 18.8 0" class="st0" style="fill:#010202"/><rect id="rect4684" width="2" height="4.7" x="20.8" y="8.7" class="st0" style="fill:#010202"/><rect id="rect4686" width="4.7" height="2" x="9.5" y="0" class="st0" style="fill:#010202"/><polygon id="polygon4688" points=".9 8.8 .9 13.1 2.9 12.5 2.9 8.8" class="st0" style="fill:#010202"/><polygon id="polygon4690" points="9.6 22.1 14.2 22.1 14.2 20.1 10.6 20.1" class="st0" style="fill:#010202"/></g><path id="path4692" d="m 12.5,11.4 -5.2,11 -1.6,-4 -4.4,4 L 0,21 4.5,17.1 0.8,15.1 12.5,11.4" class="st0" style="fill:#010202"/><polygon id="polygon4694" points="8.1 11.1 15.6 8.7 12.5 15.1 17.9 15.1 17.9 5.3 8.1 5.3" class="st0" style="fill:#010202"/><g id="g4696"><polygon id="polygon4698" points="2.9 2.1 4.9 2.1 4.9 .1 .9 .1 .9 4.1 2.9 4.1" class="st0" style="fill:#010202"/><polygon id="polygon4700" points="22.8 22.1 22.8 18.1 20.8 18.1 20.8 20.1 18.8 20.1 18.8 22.1" class="st0" style="fill:#010202"/><polygon id="polygon4702" points="18.8 2 20.8 2 20.8 4 22.8 4 22.8 0 18.8 0" class="st0" style="fill:#010202"/><rect id="rect4704" width="2" height="4.7" x="20.8" y="8.7" class="st0" style="fill:#010202"/><rect id="rect4706" width="4.7" height="2" x="9.5" y="0" class="st0" style="fill:#010202"/><polygon id="polygon4708" points=".9 8.8 .9 13.1 2.9 12.5 2.9 8.8" class="st0" style="fill:#010202"/><polygon id="polygon4710" points="9.6 22.1 14.2 22.1 14.2 20.1 10.6 20.1" class="st0" style="fill:#010202"/></g></g><rect id="rect4712" width="30.557" height="29.294" x="116.562" y="129.072" style="fill:#fae7e7;fill-opacity:0"/></g><g id="g4714"><g style="display:inline" id="g4716" transform="translate(36.562149,132.62931)"><path id="path4718" d="M 31.1,1.2 C 31.1,0.5 30.6,0 29.9,0 L 1.2,0 C 0.5,0 0,0.5 0,1.2 l 0,19.1 c 0,0.7 0.5,1.2 1.2,1.2 l 28.7,0 c 0.7,0 1.2,-0.5 1.2,-1.2 l 0,-19.1 z m -29,10.9 c -0.7,0 -1.3,-0.6 -1.3,-1.3 0,-0.7 0.6,-1.3 1.3,-1.3 0.7,0 1.3,0.6 1.3,1.3 0.1,0.7 -0.5,1.3 -1.3,1.3 z m 2.2,8.3 0,-19.3 23.7,0 0,19.3 -23.7,0 z m 24.8,-6.7 c -0.2,0 -0.4,-0.2 -0.4,-0.4 l 0,-5 c 0,-0.2 0.2,-0.4 0.4,-0.4 0.2,0 0.4,0.2 0.4,0.4 l 0,5 c 0,0.2 -0.2,0.4 -0.4,0.4 z" class="st0" style="fill:#010202"/><path id="path4720" d="M 12.8,6 C 12.7,6 12.6,6 12.5,6 12.2,6 12,6.2 12,6.6 l 0,0 0,9.4 0,0 c 0,0.3 0.2,0.6 0.5,0.6 0.1,0 0.2,0 0.3,-0.1 l 7.6,-4.6 c 0.2,-0.2 0.3,-0.4 0.3,-0.6 0,-0.3 -0.1,-0.5 -0.3,-0.6 L 12.8,6 Z" class="st0" style="fill:#010202"/></g><rect style="fill:#fae7e7;fill-opacity:0" id="rect4722" width="31.315" height="29.294" x="36.562" y="129.072"/></g><g id="g4724"><g style="display:inline" id="g4726" transform="translate(156.56215,132.72931)"><g id="g4728"><path id="path4730" d="m 16.5,0 0,0 0,0 z" class="st0" style="fill:#010202"/><path id="path4732" d="M 23.3,16.4 C 22.5,16.1 21.1,16 20.5,15.8 20.1,15.6 19.4,15.5 19.2,15.2 19,15 19,13.1 19,13.1 c 0,0 0.5,-0.5 0.7,-1 0.2,-0.5 0.4,-2 0.4,-2 0,0 0,0 0.1,0 0.2,0 0.4,-0.1 0.6,-0.8 C 21,8.5 21.3,8 21.2,7.4 21.2,7.1 21,7 20.9,7 20.8,7 20.8,7 20.8,7 20.8,7 21.2,6.4 21.2,4.3 21.2,2.1 19.5,0 16.5,0 c -3.1,0 -4.7,2.1 -4.7,4.3 0,2.1 0.4,2.7 0.4,2.7 0,0 0,0 -0.1,0 -0.1,0 -0.3,0.1 -0.3,0.5 -0.1,0.6 0.2,1.1 0.4,1.9 0.1,0.7 0.4,0.8 0.6,0.8 0.1,0 0.1,0 0.1,0 0,0 0.1,1.5 0.4,2 0.2,0.5 0.7,1 0.7,1 0,0 0,1.8 -0.2,2.1 -0.2,0.2 -0.9,0.4 -1.3,0.6 -0.6,0.2 -1.9,0.3 -2.8,0.6 -0.8,0.3 -3.4,1.5 -3.4,4.8 l 20.4,0 c 0,-3.4 -2.6,-4.6 -3.4,-4.9 z" class="st0" style="fill:#010202"/></g><path id="path4734" d="M 8.2,15.4 C 8.9,15.1 9.5,15.1 10,15 10,15 10.3,14.5 9.4,14.4 9.4,14.4 8.1,14.1 8,13.9 7.9,13.7 7.9,12.7 7.9,12.7 7.9,12.7 9.7,12.6 10.4,12 9.3,10.3 9.9,8.3 9.6,6.4 9.4,4.5 8.3,3.4 6.1,3.4 c 0,0 0,0 -0.1,0 l 0,0 C 4,3.5 3,4.7 2.7,6.6 2.4,8.5 3.1,10.7 2,12.2 c 0.7,0.6 2.3,0.6 2.5,0.6 0,0 0,0 0,0 l 0,0 c 0,0 0.1,1 -0.1,1.2 C 4.3,14.2 3.8,14.3 3.5,14.4 2.9,14.5 2.2,14.8 1.6,15 1.1,15.1 0,16.2 0,17.6 l 5.9,0 C 6.1,17.1 7.2,16 8.2,15.4 Z" class="st0" style="fill:#010202"/><path id="path4736" d="M 30.2,6.5 C 30,4.6 28.9,3.5 26.8,3.5 l 0,0 c -0.1,0 -0.1,0 -0.1,0 -2.1,0 -3.2,1.2 -3.5,3 -0.2,1.9 0.4,3.9 -0.8,5.6 0.7,0.6 2.5,0.7 2.5,0.7 0,0 0.1,1 -0.1,1.2 -0.1,0.2 -1.4,0.5 -1.4,0.5 -0.9,0.2 -0.6,0.6 -0.6,0.6 0.5,0.1 1.2,0.1 1.8,0.4 1.1,0.5 2.2,1.6 2.4,2.2 l 5.9,0 C 32.9,16.3 31.8,15.2 31.2,15 30.6,14.8 29.9,14.6 29.3,14.4 29,14.3 28.6,14.2 28.4,14 28.3,13.8 28.3,12.8 28.3,12.8 l 0,0 c 0,0 0,0 0,0 0.2,0 1.8,0 2.5,-0.6" class="st0" style="fill:#010202"/></g><rect id="rect4738" width="33.082" height="29.294" x="156.562" y="129.072" style="fill:#fae7e7;fill-opacity:0"/></g><g id="g4740"><g style="display:inline" id="g4742" transform="translate(196.56215,132.82074)"><path id="path4744" d="m 1.1,22 3.7,0 c 0.6,0 1.1,-0.5 1.1,-1.1 L 5.9,1.1 C 5.8,0.5 5.3,0 4.7,0 L 1.1,0 C 0.5,0 0,0.5 0,1.1 L 0,20.9 C 0,21.5 0.5,22 1.1,22 Z M 1,3.1 4.8,3.1 C 5.1,3.1 5.3,3.3 5.3,3.6 5.3,3.9 5.1,4 4.8,4 L 1,4 C 0.8,4 0.6,3.8 0.6,3.6 0.6,3.4 0.8,3.1 1,3.1 Z m 0,2 3.8,0 C 5.1,5.1 5.3,5.3 5.3,5.6 5.3,5.9 5.1,6 4.8,6 L 1,6 C 0.8,6 0.6,5.8 0.6,5.5 0.6,5.2 0.8,5.1 1,5.1 Z M 1,7 4.8,7 C 5.1,7 5.3,7.2 5.3,7.5 5.3,7.8 5.1,8 4.8,8 L 1,8 C 0.7,8 0.5,7.8 0.5,7.5 0.6,7.2 0.8,7 1,7 Z" class="st0" style="fill:#010202"/><path id="path4746" d="m 8.2,22 3.7,0 C 12.5,22 13,21.5 13,20.9 L 13,1.1 C 13,0.5 12.5,0 11.9,0 L 8.2,0 C 7.6,0 7.1,0.5 7.1,1.1 l 0,19.8 c 0,0.6 0.5,1.1 1.1,1.1 z M 8.1,3.1 l 3.8,0 c 0.3,0 0.5,0.2 0.5,0.5 0,0.3 -0.3,0.4 -0.5,0.4 L 8.1,4 C 7.8,4 7.6,3.8 7.6,3.6 7.6,3.4 7.8,3.1 8.1,3.1 Z m 0,2 3.8,0 c 0.3,0 0.5,0.2 0.5,0.5 0,0.3 -0.3,0.4 -0.5,0.4 L 8.1,6 C 7.8,6 7.6,5.8 7.6,5.5 7.6,5.2 7.8,5.1 8.1,5.1 Z m 0,1.9 3.8,0 c 0.3,0 0.5,0.2 0.5,0.5 0,0.3 -0.2,0.5 -0.5,0.5 L 8.1,8 C 7.8,8 7.6,7.8 7.6,7.5 7.6,7.2 7.8,7 8.1,7 Z" class="st0" style="fill:#010202"/><path id="path4748" d="m 17.7,21.3 c 0.1,0.5 0.7,0.9 1.2,0.7 l 3.2,-0.8 C 22.6,21.1 23,20.5 22.8,20 L 19,3.6 C 18.9,3.1 18.3,2.7 17.8,2.9 l -3.2,0.8 c -0.5,0.1 -0.9,0.7 -0.7,1.2 l 3.8,16.4 z m 2.1,-12 c 0.1,0.2 -0.1,0.5 -0.3,0.5 l -3.3,0.8 C 16,10.7 15.7,10.5 15.7,10.3 15.6,10.1 15.8,9.8 16,9.8 L 19.3,9 c 0.2,0 0.4,0.1 0.5,0.3 z M 19.4,7.7 c 0.1,0.2 -0.1,0.5 -0.3,0.5 L 15.8,9 C 15.6,9.1 15.3,8.9 15.3,8.7 15.2,8.5 15.4,8.2 15.6,8.2 l 3.3,-0.8 c 0.2,-0.1 0.4,0 0.5,0.3 z M 15.2,6.4 18.5,5.6 C 18.7,5.5 19,5.7 19,5.9 19.1,6.1 18.9,6.4 18.7,6.4 L 15.4,7.2 C 15.2,7.3 14.9,7.1 14.9,6.9 14.8,6.7 14.9,6.4 15.2,6.4 Z" class="st0" style="fill:#010202"/></g><rect style="fill:#fae7e7;fill-opacity:0" id="rect4750" width="23.234" height="29.294" x="196.562" y="129.072"/></g><g id="g4752"><g style="display:inline" id="g4754" transform="translate(236.56215,134.95022)"><path id="path4756" d="m 16,14.3 c 0,-1.5 0.4,-2.9 1.1,-4.1 L 15.7,9 13,11.5 10.2,9.1 4,14.4 3.2,13.6 9.4,8.3 3.2,3 4,2.2 l 9,7.7 8.9,-7.7 0.9,0.8 -6.1,5.3 1.1,1 c 1.5,-1.9 3.8,-3.1 6.4,-3.1 0.6,0 1.2,0.1 1.8,0.2 L 26,2.1 C 26,0.9 25.1,0 23.9,0 L 2.1,0 C 0.9,0 0,0.9 0,2.1 l 0,6.2 0,6.2 c 0,1.1 0.9,2.1 2.1,2.1 l 14.3,0 C 16.1,15.9 16,15.1 16,14.3 Z" class="st0" style="fill:#231f20"/><rect id="rect4758" width="9.8" height="1.9" x="19.2" y="13.4" class="st1" transform="matrix(0.7071,-0.7071,0.7071,0.7071,-3.0679,21.2899)" style="fill:#010202"/><circle id="circle4760" cx="24.2" cy="14.3" r="5.3" class="st2" style="fill:none;stroke:#010202;stroke-width:2;stroke-miterlimit:10"/></g><rect id="rect4762" width="31.062" height="29.294" x="236.562" y="129.072" style="fill:#fae7e7;fill-opacity:0"/></g><g id="g4764"><path id="path4766" d="m 278.66215,151.67931 21.8,0 c 1.2,0 2.1,-0.9 2.1,-2.1 l 0,-6.2 0,-6.2 c 0,-1.2 -0.9,-2.1 -2.1,-2.1 l -21.8,0 c -1.2,0 -2.1,0.9 -2.1,2.1 l 0,6.2 0,6.2 c 0,1.2 0.9,2.1 2.1,2.1 z m 1.1,-13.6 0.8,-0.8 9,7.7 8.9,-7.7 0.9,0.8 -6.1,5.3 6.1,5.3 -0.8,0.8 -6.2,-5.3 -2.8,2.4 -2.8,-2.4 -6.2,5.3 -0.8,-0.8 6.2,-5.3 -6.2,-5.3 z" class="st0" style="display:inline;fill:#231f20"/><rect style="fill:#fae7e7;fill-opacity:0" id="rect4768" width="31.062" height="29.294" x="276.562" y="129.072"/></g><g id="g4770"><g style="display:inline" id="g4772" transform="translate(316.56215,131.55444)"><path id="path4774" d="M 25.7,0 0.8,0 C 0.4,0 0,0.4 0,0.8 L 0,21.2 C 0,21.6 0.4,22 0.8,22 l 24.9,0 c 0.4,0 0.8,-0.4 0.8,-0.8 l 0,-20.4 C 26.5,0.4 26.1,0 25.7,0 Z m -4.2,1.1 c 0.6,0 1.1,0.5 1.1,1.1 0,0.6 -0.5,1.1 -1.1,1.1 -0.6,0 -1.1,-0.5 -1.1,-1.1 0,-0.6 0.5,-1.1 1.1,-1.1 z m 4.1,19.4 c 0,0.3 -0.2,0.5 -0.5,0.5 L 1.4,21.1 c -0.3,0 -0.5,-0.2 -0.5,-0.5 l 0,-16.2 24.7,0 0,16.1 z M 24.5,3.3 c -0.6,0 -1.1,-0.5 -1.1,-1.1 0,-0.6 0.5,-1.1 1.1,-1.1 0.6,0 1.1,0.5 1.1,1.1 0,0.6 -0.5,1.1 -1.1,1.1 z" class="st0" style="fill:#131111"/><path id="path4776" d="M 26.1,5.9 0.2,5.9 C 0.1,5.9 0,6 0,6.1 l 0,15.1 c 0,0.1 0.1,0.2 0.2,0.2 l 23.8,0 c 0.1,0 2.3,-0.1 2.3,-0.2 l 0,-15.1 C 26.3,6 26.2,5.9 26.1,5.9 Z M 3.1,14.6 5.2,12.3 3.1,10 4,9 l 3,3.3 0,0 0,0 -3,3.3 -0.9,-1 z m 8.6,1 -4.7,0 0,-1 4.7,0 0,1 z" class="st0" style="fill:#131111"/></g><rect id="rect4778" width="26.769" height="29.294" x="316.562" y="129.072" style="fill:#fae7e7;fill-opacity:0"/></g><g id="g4780"><g style="display:inline" id="g4782" transform="translate(356.56215,131.35839)"><g id="g4784"><g id="g4786"><polygon id="polygon4788" points="24.9 20.3 24.9 24.3 20.9 24.3 20.9 22.3 22.9 22.3 22.9 20.3" class="st0" style="fill:#010202"/></g><g id="g4790"><rect id="rect4792" width="4.7" height="2" x="11.6" y="22.3" class="st0" style="fill:#010202"/></g><g id="g4794"><polygon id="polygon4796" points="6.9 22.3 6.9 24.3 2.9 24.3 2.9 20.3 4.9 20.3 4.9 22.3" class="st0" style="fill:#010202"/></g><g id="g4798"><polygon id="polygon4800" points="24.9 2.3 24.9 6.3 22.9 6.3 22.9 4.3 20.9 4.3 20.9 2.3" class="st0" style="fill:#010202"/></g><g id="g4802"><rect id="rect4804" width="2" height="4.7" x="22.9" y="11" class="st0" style="fill:#010202"/></g></g><g id="g4806"><g id="g4808" transform="translate(0,-528)"><path id="path4810" d="m 3.5,534 0,1.7 6.9,0 0,-1.7 -6.9,0 z m 3.4,7.8 c -3.8,0 -6.9,-3.1 -6.9,-6.9 0,-3.8 3.1,-6.9 6.9,-6.9 3.8,0 6.9,3.1 6.9,6.9 0,3.8 -3.1,6.9 -6.9,6.9 z" class="st0" style="fill:#010202"/></g></g><path id="path4812" d="m 2.9,14.5 0,3.1 2,0 0,-2.4 C 4.2,15.1 3.5,14.8 2.9,14.5 Z" class="st0" style="fill:#010202"/><path id="path4814" d="m 14.1,2.3 c 0.4,0.6 0.7,1.3 0.9,2 l 3.2,0 0,-2 -4.1,0 z" class="st0" style="fill:#010202"/></g><rect style="fill:#fae7e7;fill-opacity:0" id="rect4816" width="25.254" height="29.294" x="356.562" y="129.072"/></g><g id="g4818"><g style="display:inline" id="g4820" transform="translate(396.56215,131.35839)"><g id="g4822"><g id="g4824"><polygon id="polygon4826" points="20.9 24.3 20.9 22.3 22.9 22.3 22.9 20.3 24.9 20.3 24.9 24.3" class="st0" style="fill:#010202"/></g><g id="g4828"><rect id="rect4830" width="4.7" height="2" x="11.6" y="22.3" class="st0" style="fill:#010202"/></g><g id="g4832"><polygon id="polygon4834" points="2.9 24.3 2.9 20.3 4.9 20.3 4.9 22.3 6.9 22.3 6.9 24.3" class="st0" style="fill:#010202"/></g><g id="g4836"><polygon id="polygon4838" points="22.9 6.3 22.9 4.3 20.9 4.3 20.9 2.3 24.9 2.3 24.9 6.3" class="st0" style="fill:#010202"/></g><g id="g4840"><rect id="rect4842" width="2" height="4.7" x="22.9" y="11" class="st0" style="fill:#010202"/></g></g><g id="g4844"><g id="g4846" transform="translate(0,-528)"><path id="path4848" d="m 3.5,534 0,1.7 2.5,0 0,2.6 1.7,0 0,-2.6 2.6,0 0,-1.7 -2.5,0 0,-2.6 -1.8,0 0,2.6 -2.5,0 z m 3.4,7.8 c -3.8,0 -6.9,-3.1 -6.9,-6.9 0,-3.8 3.1,-6.9 6.9,-6.9 3.8,0 6.9,3.1 6.9,6.9 0,3.8 -3.1,6.9 -6.9,6.9 z" class="st0" style="fill:#010202"/></g></g><path id="path4850" d="m 2.9,14.5 0,3.1 2,0 0,-2.4 C 4.2,15.1 3.5,14.8 2.9,14.5 Z" class="st0" style="fill:#010202"/><path id="path4852" d="m 14.1,2.3 c 0.4,0.6 0.7,1.3 0.9,2 l 3.2,0 0,-2 -4.1,0 z" class="st0" style="fill:#010202"/></g><rect id="rect4854" width="25.254" height="29.294" x="396.562" y="129.072" style="fill:#fae7e7;fill-opacity:0"/></g><g id="g4856"><g style="display:inline" id="g4858" transform="translate(436.56821,132.90226)"><rect id="rect4860" width="9.8" height="1.9" x="16.8" y="15.6" class="st0" transform="matrix(0.7071,-0.7071,0.7071,0.7071,-5.3318,20.1807)" style="fill:#010202"/><path id="path4862" d="m 13.4,16.5 c 0,-3.3 1.9,-6.1 4.7,-7.4 L 13.7,1.3 c -0.9,-1.7 -3.3,-1.7 -4.2,0 L 0.3,17.5 c -0.9,1.6 0.3,3.6 2.1,3.6 l 12.3,0 c -0.8,-1.3 -1.3,-2.9 -1.3,-4.6 z m -0.8,-0.8 c 0,0.1 -0.1,0.3 -0.2,0.3 l -1.6,0 c -0.1,0 -0.3,-0.1 -0.3,-0.3 l 0,-1.5 c 0,-0.1 0.1,-0.3 0.3,-0.3 l 1.6,0 c 0.1,0 0.2,0.1 0.2,0.3 l 0,1.5 z m 0,-2.9 c 0,0.1 -0.1,0.2 -0.3,0.2 l -1.6,0 c -0.2,0 -0.3,-0.1 -0.3,-0.2 l -0.1,-6 c 0,0 0,-0.1 0.1,-0.1 0,0 0.1,-0.1 0.2,-0.1 l 1.8,0 c 0.1,0 0.1,0 0.2,0.1 0,0 0.1,0.1 0.1,0.1 l -0.1,6 z" class="st0" style="fill:#010202"/><circle id="circle4864" cx="21.7" cy="16.5" r="5.3" class="st1" style="fill:none;stroke:#010202;stroke-width:2;stroke-miterlimit:10"/></g><rect style="fill:#fae7e7;fill-opacity:0" id="rect4866" width="28.537" height="29.294" x="436.562" y="129.072"/></g><g id="g4868"><path id="path4870" d="m 499.46718,150.43292 -9.2,-16.3 c -0.9,-1.7 -3.3,-1.7 -4.2,0 l -9.1,16.3 c -0.9,1.6 0.3,3.6 2.1,3.6 l 18.2,0 c 1.9,0 3.1,-2 2.2,-3.6 z m -10.2,-0.8 c 0,0.1 -0.1,0.3 -0.2,0.3 l -1.6,0 c -0.1,0 -0.3,-0.1 -0.3,-0.3 l 0,-1.5 c 0,-0.1 0.1,-0.3 0.3,-0.3 l 1.6,0 c 0.1,0 0.2,0.1 0.2,0.3 l 0,1.5 z m 0,-2.9 c 0,0.1 -0.1,0.2 -0.3,0.2 l -1.6,0 c -0.2,0 -0.3,-0.1 -0.3,-0.2 l -0.1,-6 c 0,0 0,-0.1 0.1,-0.1 0,0 0.1,-0.1 0.2,-0.1 l 1.8,0 c 0.1,0 0.1,0 0.2,0.1 0,0 0.1,0.1 0.1,0.1 l -0.1,6 z" class="st0" style="display:inline;fill:#010202"/><rect id="rect4872" width="28.537" height="29.294" x="476.562" y="129.072" style="fill:#fae7e7;fill-opacity:0"/></g><g id="g4874"><g style="display:inline" id="g4876" transform="translate(516.56215,131.44385)"><path id="path4878" d="M 15.1,6 C 12.4,6 10,8.3 10,11 c 0,1.2 0.4,2.4 1.2,3.3 L 9,15.2 6.7,17.6 c -0.2,0.2 -0.3,0.5 -0.3,0.8 0,0.7 0.6,1.4 1.4,1.4 0.3,0 0.6,-0.1 0.8,-0.3 l 2.4,-2.4 0.9,-2.3 c 1,0.8 2.1,1.2 3.3,1.2 1.3,0 2.6,-0.5 3.6,-1.5 1,-1 1.5,-2.3 1.5,-3.6 C 20.1,8.3 17.8,6 15.1,6 Z m 0,8.1 c -0.8,0 -1.6,-0.3 -2.2,-0.9 C 12.3,12.6 12,11.8 12,11 c 0,-1.7 1.4,-3.1 3.1,-3.1 1.7,0 3.1,1.4 3.1,3.1 0,1.7 -1.4,3.1 -3.1,3.1 z" class="st0" style="fill:#131111"/><path id="path4880" d="M 25.7,0 0.8,0 C 0.4,0 0,0.4 0,0.8 L 0,21.2 C 0,21.6 0.4,22 0.8,22 l 24.9,0 c 0.4,0 0.8,-0.4 0.8,-0.8 l 0,-20.4 C 26.5,0.4 26.1,0 25.7,0 Z m -4.2,1.1 c 0.6,0 1.1,0.5 1.1,1.1 0,0.6 -0.5,1.1 -1.1,1.1 -0.6,0 -1.1,-0.5 -1.1,-1.1 0,-0.6 0.5,-1.1 1.1,-1.1 z m 4.1,19.4 c 0,0.3 -0.2,0.5 -0.5,0.5 L 1.4,21.1 c -0.3,0 -0.5,-0.2 -0.5,-0.5 l 0,-16.2 24.7,0 0,16.1 z M 24.5,3.3 c -0.6,0 -1.1,-0.5 -1.1,-1.1 0,-0.6 0.5,-1.1 1.1,-1.1 0.6,0 1.1,0.5 1.1,1.1 0,0.6 -0.5,1.1 -1.1,1.1 z" class="st0" style="fill:#131111"/></g><rect style="fill:#fae7e7;fill-opacity:0" id="rect4882" width="26.517" height="29.294" x="516.562" y="129.072"/></g><g id="g4884"><g style="display:inline" id="g4886" transform="translate(596.56215,132.10395)"><path id="path4888" d="M 25.7,0 0.8,0 C 0.4,0 0,0.4 0,0.8 L 0,21.2 C 0,21.6 0.4,22 0.8,22 l 24.9,0 c 0.4,0 0.8,-0.4 0.8,-0.8 l 0,-20.4 C 26.5,0.4 26.1,0 25.7,0 Z m -4.2,1.1 c 0.6,0 1.1,0.5 1.1,1.1 0,0.6 -0.5,1.1 -1.1,1.1 -0.6,0 -1.1,-0.5 -1.1,-1.1 0,-0.6 0.5,-1.1 1.1,-1.1 z m 4.1,19.4 c 0,0.3 -0.2,0.5 -0.5,0.5 L 1.4,21.1 c -0.3,0 -0.5,-0.2 -0.5,-0.5 l 0,-16.2 24.7,0 0,16.1 z M 24.5,3.3 c -0.6,0 -1.1,-0.5 -1.1,-1.1 0,-0.6 0.5,-1.1 1.1,-1.1 0.6,0 1.1,0.5 1.1,1.1 0,0.6 -0.5,1.1 -1.1,1.1 z" class="st0" style="fill:#131111"/><path id="path4890" d="m 20.7,9.1 0,0 c -0.3,0 -0.3,-0.2 -0.3,-0.3 l 0,-1.7 c 0,-0.2 -0.1,-0.3 -0.3,-0.3 l -4.8,0 c -1.2,0 -1.6,0.4 -1.7,0.6 l 0,0 0,0 -0.1,0.1 0,0 c -0.1,0.2 -0.2,0.1 -0.3,0 L 13,7.3 12.9,7.2 C 12.8,7 12.4,6.7 11.6,6.7 l -5.1,0 C 6.3,6.7 6.2,6.8 6.2,7 l 0,1.6 C 6.2,9 6,9.1 5.9,9.1 l -0.1,0 C 5.7,9.1 5.5,9.2 5.5,9.5 l 0,7.8 c 0,0.2 0.2,0.3 0.3,0.3 l 4.6,0 c 1.5,0 2.1,0.6 2.3,0.8 l 0.1,0.1 0,0 c 0,0 0.3,0.3 0.6,0 l 0,0 0.1,-0.1 0,0 0,0 0.1,-0.1 c 0,0 0,0 0.1,-0.1 0.2,-0.2 0.9,-0.7 2.1,-0.7 l 4.8,0 c 0.2,0 0.3,-0.2 0.3,-0.3 l 0,-7.8 c 0,-0.3 -0.2,-0.3 -0.2,-0.3 z m -1.1,7 c 0,0.2 -0.1,0.3 -0.3,0.3 l -3.9,0 C 14,16.4 13.5,17 13.5,17 l -0.1,0.1 0,0 0,0 c -0.1,0.2 -0.3,0 -0.3,0 L 13,17 c -0.1,-0.1 -0.6,-0.6 -1.8,-0.6 l -4,0 C 7,16.4 6.9,16.3 6.9,16.1 l 0,-8.4 C 6.9,7.5 7,7.4 7.2,7.4 l 3.1,0 c 2.3,0 2.6,1.3 2.6,1.7 l 0,5.9 c 0,0.4 0.2,0.5 0.3,0.5 l 0.2,0 c 0.1,0 0.3,-0.1 0.3,-0.4 l 0,-6 0,0 c 0,-0.5 0.2,-1.6 1.6,-1.6 l 4.1,0 c 0.2,0 0.3,0.1 0.3,0.3 l 0,8.3 z" class="st1" style="fill:#241f20"/></g><rect id="rect4892" width="26.517" height="29.294" x="596.562" y="129.072" style="fill:#fae7e7;fill-opacity:0"/></g><g id="g4894"><g transform="translate(369.11183,110.08761)" style="display:inline" id="g4896"><g id="g4898" transform="translate(267.44556,19.974753)"><g id="g4900"><path id="path4902" d="m 6.2,13.5 6.2,2.3 C 12.7,15.9 13,15.7 13,15.4 L 12.7,8.8 c 0,-0.1 0,-0.3 -0.1,-0.4 l 0,0 c 0,0 0,0 0,-0.1 l -4.4,-6 -1.6,1.1 4,5.4 C 10.8,9 10.7,9.3 10.5,9.5 L 10.2,9.8 C 9.9,9.9 9.6,9.8 9.5,9.6 l -4,-5.4 -1.4,1 4,5.5 C 8.2,10.9 8.2,11.2 8,11.3 L 7.6,11.6 C 7.4,11.7 7.1,11.7 7,11.5 L 3,6 1.4,7.2 5.7,13 c 0.1,0.2 0.2,0.4 0.5,0.5 z m 1.1,-0.7 4.3,-3.1 c 0.3,-0.2 0.7,0.1 0.7,0.5 l 0.1,3.6 c -0.1,0 -0.1,0 -0.2,0.1 l -1.3,0.9 c 0,0 0,0 0,0 L 7.6,13.7 C 7.2,13.5 7,12.9 7.3,12.8 Z" class="st0" style="fill:#231f20"/><path id="path4904" d="M 1.1,6.8 0.6,6.1 C -0.4,4.8 -0.1,3 1.2,2 l 2,-1.5 c 1.3,-0.9 3.1,-0.7 4.1,0.6 l 0.5,0.7 -6.7,5 z" class="st0" style="fill:#231f20"/></g></g><g id="g4906" transform="translate(267.44556,19.974753)"><polygon id="polygon4908" points="24.4 21.2 22.4 21.2 22.4 23.2 20.4 23.2 20.4 25.2 24.4 25.2" class="st1" style="fill:#010202"/><rect id="rect4910" width="4.7" height="2" x="11.1" y="23.2" class="st1" style="fill:#010202"/><polygon id="polygon4912" points="6.4 23.2 4.4 23.2 4.4 21.2 2.4 21.2 2.4 25.2 6.4 25.2" class="st1" style="fill:#010202"/><polygon id="polygon4914" points="24.4 7.3 24.4 3.3 20.4 3.3 20.4 5.3 22.4 5.3 22.4 7.3" class="st1" style="fill:#010202"/><rect id="rect4916" width="2" height="4.7" x="22.4" y="11.9" class="st1" style="fill:#010202"/><polygon id="polygon4918" points="4.4 14.9 2.4 12.2 2.4 16.6 4.4 16.6" class="st1" style="fill:#010202"/><polygon id="polygon4920" points="15.8 5.3 15.8 3.3 11.1 3.3 12.6 5.3" class="st1" style="fill:#010202"/></g></g><rect style="fill:#fae7e7;fill-opacity:0" id="rect4922" width="24.749" height="29.294" x="636.31" y="129.072"/></g><g id="g4924"><g id="g4926" transform="translate(558.85739,133.50714)" style="display:inline;image-rendering:optimizeQuality"><g id="g4928"><g id="g4930"><path id="path4932" d="m 6.7,10.8 -1.8,4.8 c -0.1,0.3 0,0.5 0.3,0.4 l 5.2,-0.2 c 0.1,0 0.2,0 0.3,-0.1 l 0,0 c 0,0 0,0 0,0 l 4.7,-3.5 -0.8,-1.1 -4.3,3.1 C 10.1,14.3 9.9,14.3 9.8,14.1 L 9.6,13.8 C 9.5,13.6 9.5,13.4 9.7,13.3 L 14,10.2 13.2,9.1 8.9,12.3 C 8.7,12.4 8.5,12.4 8.4,12.2 L 8.2,11.9 C 8,11.7 8,11.5 8.2,11.4 L 12.5,8.2 11.6,7 7,10.4 c -0.1,0 -0.3,0.2 -0.3,0.4 z m 0.5,0.9 2.5,3.3 c 0.1,0.2 -0.1,0.5 -0.4,0.6 l -2.8,0.1 c 0,0 0,-0.1 0,-0.1 l -0.7,-1 c 0,0 0,0 0,0 L 6.7,12 c 0,-0.4 0.4,-0.5 0.5,-0.3 z" class="st0" style="fill:#231f20"/><path id="path4934" d="m 12,6.8 0.5,-0.4 c 1,-0.7 2.4,-0.5 3.2,0.5 l 1.1,1.6 c 0.7,1 0.5,2.4 -0.5,3.2 L 15.8,12 12,6.8 Z" class="st0" style="fill:#231f20"/></g></g><g id="g4936"><polygon id="polygon4938" points="18.1 22 22.1 22 22.1 18 20.1 18 20.1 20 18.1 20" class="st1" style="fill:#010202"/><polygon id="polygon4940" points="13.1 22 13.4 22 13.4 20 8.8 20 8.8 20 8.8 22 8.8 22 13.1 22" class="st1" style="fill:#010202"/><polygon id="polygon4942" points="22.1 0 18.1 0 18.1 0 18.1 2 18.1 2 20.1 2 20.1 4 20.1 4 22.1 4 22.1 4 22.1 0" class="st1" style="fill:#010202"/><polygon id="polygon4944" points="22.1 13.2 22.1 8.7 22.1 8.7 20.1 8.7 20.1 8.7 20.1 12.3 20.1 13.3 22.1 13.3" class="st1" style="fill:#010202"/><polygon id="polygon4946" points="2.1 20 2.1 18 2.1 18 .1 18 .1 18 .1 22 .1 22 4.1 22 4.1 22 4.1 20 4.1 20" class="st1" style="fill:#010202"/><polygon id="polygon4948" points="4 0 0 0 0 4 2 4 2 2 4 2" class="st1" style="fill:#010202"/><rect id="rect4950" width="4.7" height="2" x="8.7" y="0" class="st1" style="fill:#010202"/><rect id="rect4952" width="2" height="4.7" x="0" y="8.7" class="st1" style="fill:#010202"/></g></g><rect id="rect4954" width="24.749" height="29.294" x="556.31" y="129.072" style="fill:#fae7e7;fill-opacity:0"/></g></g></svg>